# xmcd CD database file
#
# Track frame offsets:
#	150
#	34892
#	66494
#	97819
#	129978
#	158126
#	190275
#	220251
#	252293
#
# Disc length: 3759 seconds
#
# Revision: 2
# Processed by: cddbd v1.5.2PL0 Copyright (c) Steve Scherf et al.
# Submitted via: CDex 1.51
#
DISCID=7c0ead09
DTITLE=Nils Janson - Debut
DYEAR=2008
DGENRE=Jazz
TTITLE0=Slow party
TTITLE1=Offline
TTITLE2=Waste it
TTITLE3=Waiting
TTITLE4=Quick song
TTITLE5=Too little too late
TTITLE6=Motståndaren
TTITLE7=Low
TTITLE8=Vena cava suprior
EXTD=YEAR: 2008
EXTT0=
EXTT1=
EXTT2=
EXTT3=
EXTT4=
EXTT5=
EXTT6=
EXTT7=
EXTT8=
PLAYORDER=
